<mxfile host="app.diagrams.net" modified="2024-01-08T21:35:21.368Z" agent="Mozilla/5.0 (Windows NT 10.0; Win64; x64) AppleWebKit/537.36 (KHTML, like Gecko) Chrome/120.0.0.0 Safari/537.36" etag="FTVceU3hh1k7G4JyI1Ey" version="22.1.17" type="github" pages="2">
  <diagram name="Page-1" id="c7488fd3-1785-93aa-aadb-54a6760d102a">
    <mxGraphModel dx="1034" dy="1296" grid="1" gridSize="10" guides="1" tooltips="1" connect="1" arrows="1" fold="1" page="1" pageScale="1" pageWidth="1100" pageHeight="850" background="none" math="0" shadow="0">
      <root>
        <mxCell id="0" />
        <mxCell id="1" parent="0" />
        <mxCell id="2b4e8129b02d487f-1" value="Pool" style="swimlane;html=1;childLayout=stackLayout;horizontal=1;startSize=20;horizontalStack=0;rounded=0;shadow=0;labelBackgroundColor=none;strokeWidth=1;fontFamily=Verdana;fontSize=8;align=center;" parent="1" vertex="1">
          <mxGeometry x="60" y="-10" width="1010" height="760" as="geometry" />
        </mxCell>
        <mxCell id="2b4e8129b02d487f-2" value="Stage 1&lt;br&gt;&lt;span style=&quot;font-size: 10px; background-color: rgb(251, 251, 251); text-align: left;&quot;&gt;Data Ingestion&lt;/span&gt;" style="swimlane;html=1;startSize=20;horizontal=0;" parent="2b4e8129b02d487f-1" vertex="1">
          <mxGeometry y="20" width="1010" height="170" as="geometry" />
        </mxCell>
        <mxCell id="2b4e8129b02d487f-18" style="edgeStyle=orthogonalEdgeStyle;rounded=0;html=1;labelBackgroundColor=none;startArrow=none;startFill=0;startSize=5;endArrow=classicThin;endFill=1;endSize=5;jettySize=auto;orthogonalLoop=1;strokeWidth=1;fontFamily=Verdana;fontSize=8" parent="2b4e8129b02d487f-2" source="2b4e8129b02d487f-5" target="2b4e8129b02d487f-6" edge="1">
          <mxGeometry relative="1" as="geometry" />
        </mxCell>
        <mxCell id="2b4e8129b02d487f-5" value="" style="ellipse;whiteSpace=wrap;html=1;rounded=0;shadow=0;labelBackgroundColor=none;strokeWidth=1;fontFamily=Verdana;fontSize=8;align=center;" parent="2b4e8129b02d487f-2" vertex="1">
          <mxGeometry x="35" y="60" width="30" height="30" as="geometry" />
        </mxCell>
        <mxCell id="2b4e8129b02d487f-6" value="&lt;div style=&quot;&quot;&gt;&lt;span style=&quot;font-family: &amp;quot;Times New Roman&amp;quot;; background-color: initial;&quot;&gt;&lt;font style=&quot;font-size: 10px;&quot;&gt;Using the Google Drive API to access and download data from the shared Drive.&lt;/font&gt;&lt;/span&gt;&lt;/div&gt;" style="rounded=1;whiteSpace=wrap;html=1;shadow=0;labelBackgroundColor=none;strokeWidth=1;fontFamily=Verdana;fontSize=8;align=center;" parent="2b4e8129b02d487f-2" vertex="1">
          <mxGeometry x="95" y="56.5" width="120" height="37" as="geometry" />
        </mxCell>
        <mxCell id="meccaOd6r_jWTt41rKHq-13" value="&lt;p&gt;&lt;span style=&quot;color: var(--tw-prose-code); font-family: &amp;quot;Söhne Mono&amp;quot;, Monaco, &amp;quot;Andale Mono&amp;quot;, &amp;quot;Ubuntu Mono&amp;quot;, monospace; font-size: 0.875em; font-weight: 600; background-color: initial;&quot;&gt;google-auth&lt;/span&gt;&lt;br&gt;&lt;/p&gt;&lt;p&gt;&lt;code style=&quot;border: 0px solid rgb(217, 217, 227); box-sizing: border-box; --tw-border-spacing-x: 0; --tw-border-spacing-y: 0; --tw-translate-x: 0; --tw-translate-y: 0; --tw-rotate: 0; --tw-skew-x: 0; --tw-skew-y: 0; --tw-scale-x: 1; --tw-scale-y: 1; --tw-pan-x: ; --tw-pan-y: ; --tw-pinch-zoom: ; --tw-scroll-snap-strictness: proximity; --tw-gradient-from-position: ; --tw-gradient-via-position: ; --tw-gradient-to-position: ; --tw-ordinal: ; --tw-slashed-zero: ; --tw-numeric-figure: ; --tw-numeric-spacing: ; --tw-numeric-fraction: ; --tw-ring-inset: ; --tw-ring-offset-width: 0px; --tw-ring-offset-color: #fff; --tw-ring-color: rgba(69,89,164,.5); --tw-ring-offset-shadow: 0 0 transparent; --tw-ring-shadow: 0 0 transparent; --tw-shadow: 0 0 transparent; --tw-shadow-colored: 0 0 transparent; --tw-blur: ; --tw-brightness: ; --tw-contrast: ; --tw-grayscale: ; --tw-hue-rotate: ; --tw-invert: ; --tw-saturate: ; --tw-sepia: ; --tw-drop-shadow: ; --tw-backdrop-blur: ; --tw-backdrop-brightness: ; --tw-backdrop-contrast: ; --tw-backdrop-grayscale: ; --tw-backdrop-hue-rotate: ; --tw-backdrop-invert: ; --tw-backdrop-opacity: ; --tw-backdrop-saturate: ; --tw-backdrop-sepia: ; font-size: 0.875em; color: var(--tw-prose-code); font-weight: 600; font-family: &amp;quot;Söhne Mono&amp;quot;, Monaco, &amp;quot;Andale Mono&amp;quot;, &amp;quot;Ubuntu Mono&amp;quot;, monospace !important;&quot;&gt;google-api-python-client&lt;/code&gt;&lt;br&gt;&lt;/p&gt;" style="text;html=1;strokeColor=none;fillColor=none;spacing=5;spacingTop=-20;whiteSpace=wrap;overflow=hidden;rounded=0;" parent="2b4e8129b02d487f-2" vertex="1">
          <mxGeometry x="190" y="6.5" width="190" height="50" as="geometry" />
        </mxCell>
        <mxCell id="2b4e8129b02d487f-3" value="Stage 2&lt;br&gt;&lt;span style=&quot;background-color: rgb(251, 251, 251); text-align: left;&quot;&gt;&lt;font style=&quot;font-size: 10px;&quot;&gt;Layered Storage&lt;/font&gt;&lt;/span&gt;" style="swimlane;html=1;startSize=20;horizontal=0;" parent="2b4e8129b02d487f-1" vertex="1">
          <mxGeometry y="190" width="1010" height="250" as="geometry" />
        </mxCell>
        <mxCell id="meccaOd6r_jWTt41rKHq-18" value="&lt;font color=&quot;#000000&quot;&gt;Silver Layer &lt;/font&gt;" style="sketch=0;points=[[0,0,0],[0.25,0,0],[0.5,0,0],[0.75,0,0],[1,0,0],[1,0.25,0],[1,0.5,0],[1,0.75,0],[1,1,0],[0.75,1,0],[0.5,1,0],[0.25,1,0],[0,1,0],[0,0.75,0],[0,0.5,0],[0,0.25,0]];rounded=1;absoluteArcSize=1;arcSize=2;html=1;strokeColor=none;gradientColor=none;shadow=0;dashed=0;fontSize=12;fontColor=#9E9E9E;align=left;verticalAlign=top;spacing=10;spacingTop=-4;whiteSpace=wrap;fillColor=#D7D7D7;" parent="2b4e8129b02d487f-3" vertex="1">
          <mxGeometry x="380" y="5" width="270" height="240" as="geometry" />
        </mxCell>
        <mxCell id="meccaOd6r_jWTt41rKHq-15" value="&lt;font color=&quot;#000000&quot;&gt;Bronze Layer &lt;/font&gt;" style="sketch=0;points=[[0,0,0],[0.25,0,0],[0.5,0,0],[0.75,0,0],[1,0,0],[1,0.25,0],[1,0.5,0],[1,0.75,0],[1,1,0],[0.75,1,0],[0.5,1,0],[0.25,1,0],[0,1,0],[0,0.75,0],[0,0.5,0],[0,0.25,0]];rounded=1;absoluteArcSize=1;arcSize=2;html=1;strokeColor=none;gradientColor=none;shadow=0;dashed=0;fontSize=12;fontColor=#9E9E9E;align=left;verticalAlign=top;spacing=10;spacingTop=-4;whiteSpace=wrap;fillColor=#AD8A56;" parent="2b4e8129b02d487f-3" vertex="1">
          <mxGeometry x="30" y="5" width="280" height="240" as="geometry" />
        </mxCell>
        <mxCell id="2b4e8129b02d487f-12" value="Create a bucket in Google Cloud Storage to store raw raw data" style="rounded=1;whiteSpace=wrap;html=1;shadow=0;labelBackgroundColor=none;strokeWidth=1;fontFamily=Verdana;fontSize=8;align=center;fillColor=none;" parent="2b4e8129b02d487f-3" vertex="1">
          <mxGeometry x="90" y="60" width="130" height="37" as="geometry" />
        </mxCell>
        <mxCell id="meccaOd6r_jWTt41rKHq-10" value="Performs data cleaning, normalization, etc." style="rounded=1;whiteSpace=wrap;html=1;shadow=0;labelBackgroundColor=none;strokeWidth=1;fontFamily=Verdana;fontSize=8;align=center;fillColor=none;" parent="2b4e8129b02d487f-3" vertex="1">
          <mxGeometry x="453" y="60" width="140" height="37" as="geometry" />
        </mxCell>
        <mxCell id="meccaOd6r_jWTt41rKHq-17" value="&lt;font color=&quot;#000000&quot;&gt;Gold Layer &lt;/font&gt;" style="sketch=0;points=[[0,0,0],[0.25,0,0],[0.5,0,0],[0.75,0,0],[1,0,0],[1,0.25,0],[1,0.5,0],[1,0.75,0],[1,1,0],[0.75,1,0],[0.5,1,0],[0.25,1,0],[0,1,0],[0,0.75,0],[0,0.5,0],[0,0.25,0]];rounded=1;absoluteArcSize=1;arcSize=2;html=1;strokeColor=none;gradientColor=none;shadow=0;dashed=0;fontSize=12;fontColor=#9E9E9E;align=left;verticalAlign=top;spacing=10;spacingTop=-4;whiteSpace=wrap;fillColor=#C9B037;" parent="2b4e8129b02d487f-3" vertex="1">
          <mxGeometry x="719" y="4" width="270" height="240" as="geometry" />
        </mxCell>
        <mxCell id="meccaOd6r_jWTt41rKHq-11" value="It uses BigQuery to store the processed data. BigQuery is ideal for interactive analysis and supports SQL" style="rounded=1;whiteSpace=wrap;html=1;shadow=0;labelBackgroundColor=none;strokeWidth=1;fontFamily=Verdana;fontSize=8;align=center;fillColor=none;" parent="2b4e8129b02d487f-3" vertex="1">
          <mxGeometry x="780" y="60" width="130" height="37" as="geometry" />
        </mxCell>
        <mxCell id="2b4e8129b02d487f-14" value="Use Cloud Dataflow or Apache Beam to process and transform data from the bronze bucket and store it in a new silver bucket" style="rounded=1;whiteSpace=wrap;html=1;shadow=0;labelBackgroundColor=none;strokeWidth=1;fontFamily=Verdana;fontSize=8;align=center;fillColor=none;" parent="2b4e8129b02d487f-3" vertex="1">
          <mxGeometry x="453" y="130" width="140" height="37" as="geometry" />
        </mxCell>
        <mxCell id="meccaOd6r_jWTt41rKHq-19" value="" style="endArrow=classic;html=1;rounded=0;exitX=1;exitY=0.5;exitDx=0;exitDy=0;entryX=0;entryY=0.5;entryDx=0;entryDy=0;" parent="2b4e8129b02d487f-3" source="2b4e8129b02d487f-12" target="meccaOd6r_jWTt41rKHq-10" edge="1">
          <mxGeometry width="50" height="50" relative="1" as="geometry">
            <mxPoint x="310" y="77.91" as="sourcePoint" />
            <mxPoint x="380" y="78.16" as="targetPoint" />
          </mxGeometry>
        </mxCell>
        <mxCell id="meccaOd6r_jWTt41rKHq-20" value="" style="endArrow=classic;html=1;rounded=0;" parent="2b4e8129b02d487f-3" source="meccaOd6r_jWTt41rKHq-10" target="2b4e8129b02d487f-14" edge="1">
          <mxGeometry width="50" height="50" relative="1" as="geometry">
            <mxPoint x="520" y="120" as="sourcePoint" />
            <mxPoint x="570" y="70" as="targetPoint" />
          </mxGeometry>
        </mxCell>
        <mxCell id="meccaOd6r_jWTt41rKHq-21" value="" style="endArrow=classic;html=1;rounded=0;exitX=1;exitY=0.5;exitDx=0;exitDy=0;entryX=0;entryY=0.5;entryDx=0;entryDy=0;" parent="2b4e8129b02d487f-3" source="meccaOd6r_jWTt41rKHq-10" target="meccaOd6r_jWTt41rKHq-11" edge="1">
          <mxGeometry width="50" height="50" relative="1" as="geometry">
            <mxPoint x="650" y="77.91" as="sourcePoint" />
            <mxPoint x="720" y="78.16" as="targetPoint" />
          </mxGeometry>
        </mxCell>
        <mxCell id="2b4e8129b02d487f-17" value="Schedule data loading from the silver bucket to BigQuery." style="rounded=1;whiteSpace=wrap;html=1;shadow=0;labelBackgroundColor=none;strokeWidth=1;fontFamily=Verdana;fontSize=8;align=center;fillColor=none;" parent="2b4e8129b02d487f-3" vertex="1">
          <mxGeometry x="780" y="130" width="130" height="37" as="geometry" />
        </mxCell>
        <mxCell id="meccaOd6r_jWTt41rKHq-26" value="" style="endArrow=classic;html=1;rounded=0;" parent="2b4e8129b02d487f-3" edge="1">
          <mxGeometry width="50" height="50" relative="1" as="geometry">
            <mxPoint x="844.4100000000001" y="97" as="sourcePoint" />
            <mxPoint x="844.4100000000001" y="130" as="targetPoint" />
          </mxGeometry>
        </mxCell>
        <mxCell id="2b4e8129b02d487f-24" style="edgeStyle=orthogonalEdgeStyle;rounded=0;html=1;labelBackgroundColor=none;startArrow=none;startFill=0;startSize=5;endArrow=classicThin;endFill=1;endSize=5;jettySize=auto;orthogonalLoop=1;strokeWidth=1;fontFamily=Verdana;fontSize=8" parent="2b4e8129b02d487f-1" source="2b4e8129b02d487f-6" target="2b4e8129b02d487f-12" edge="1">
          <mxGeometry relative="1" as="geometry" />
        </mxCell>
        <mxCell id="meccaOd6r_jWTt41rKHq-34" style="edgeStyle=orthogonalEdgeStyle;rounded=0;orthogonalLoop=1;jettySize=auto;html=1;exitX=1;exitY=0.5;exitDx=0;exitDy=0;entryX=1;entryY=0.5;entryDx=0;entryDy=0;" parent="2b4e8129b02d487f-1" source="meccaOd6r_jWTt41rKHq-11" target="meccaOd6r_jWTt41rKHq-33" edge="1">
          <mxGeometry relative="1" as="geometry">
            <Array as="points">
              <mxPoint x="950" y="269" />
              <mxPoint x="950" y="559" />
            </Array>
          </mxGeometry>
        </mxCell>
        <mxCell id="2b4e8129b02d487f-4" value="Stage 3&lt;br&gt;&lt;font style=&quot;border-color: var(--border-color); font-size: 10px;&quot;&gt;Dashboard/ML&lt;br&gt;&lt;/font&gt;" style="swimlane;html=1;startSize=20;horizontal=0;" parent="2b4e8129b02d487f-1" vertex="1">
          <mxGeometry y="440" width="1010" height="150" as="geometry" />
        </mxCell>
        <mxCell id="meccaOd6r_jWTt41rKHq-43" style="edgeStyle=orthogonalEdgeStyle;rounded=0;orthogonalLoop=1;jettySize=auto;html=1;exitX=0;exitY=0.5;exitDx=0;exitDy=0;exitPerimeter=0;" parent="2b4e8129b02d487f-4" edge="1">
          <mxGeometry relative="1" as="geometry">
            <mxPoint x="600" y="50" as="targetPoint" />
            <mxPoint x="719" y="50" as="sourcePoint" />
          </mxGeometry>
        </mxCell>
        <mxCell id="meccaOd6r_jWTt41rKHq-29" value="" style="sketch=0;points=[[0,0,0],[0.25,0,0],[0.5,0,0],[0.75,0,0],[1,0,0],[1,0.25,0],[1,0.5,0],[1,0.75,0],[1,1,0],[0.75,1,0],[0.5,1,0],[0.25,1,0],[0,1,0],[0,0.75,0],[0,0.5,0],[0,0.25,0]];rounded=1;absoluteArcSize=1;arcSize=2;html=1;strokeColor=none;gradientColor=none;shadow=0;dashed=0;fontSize=12;fontColor=#9E9E9E;align=left;verticalAlign=top;spacing=10;spacingTop=-4;whiteSpace=wrap;fillColor=#C9B037;" parent="2b4e8129b02d487f-4" vertex="1">
          <mxGeometry x="719" y="5" width="270" height="140" as="geometry" />
        </mxCell>
        <mxCell id="meccaOd6r_jWTt41rKHq-30" value="Setting up BigQuery for ML" style="rounded=1;whiteSpace=wrap;html=1;shadow=0;labelBackgroundColor=none;strokeWidth=1;fontFamily=Verdana;fontSize=8;align=center;fillColor=none;" parent="2b4e8129b02d487f-4" vertex="1">
          <mxGeometry x="780" y="10" width="130" height="37" as="geometry" />
        </mxCell>
        <mxCell id="meccaOd6r_jWTt41rKHq-32" value="Integration with Dashboards" style="rounded=1;whiteSpace=wrap;html=1;shadow=0;labelBackgroundColor=none;strokeWidth=1;fontFamily=Verdana;fontSize=8;align=center;fillColor=none;" parent="2b4e8129b02d487f-4" vertex="1">
          <mxGeometry x="780" y="55" width="130" height="37" as="geometry" />
        </mxCell>
        <mxCell id="meccaOd6r_jWTt41rKHq-33" value="Training ML Models" style="rounded=1;whiteSpace=wrap;html=1;shadow=0;labelBackgroundColor=none;strokeWidth=1;fontFamily=Verdana;fontSize=8;align=center;fillColor=none;" parent="2b4e8129b02d487f-4" vertex="1">
          <mxGeometry x="780" y="100" width="130" height="37" as="geometry" />
        </mxCell>
        <mxCell id="meccaOd6r_jWTt41rKHq-39" style="edgeStyle=orthogonalEdgeStyle;rounded=0;orthogonalLoop=1;jettySize=auto;html=1;exitX=0;exitY=0.75;exitDx=0;exitDy=0;exitPerimeter=0;" parent="2b4e8129b02d487f-4" edge="1">
          <mxGeometry relative="1" as="geometry">
            <mxPoint x="910" y="28" as="targetPoint" />
            <mxPoint x="949" y="28" as="sourcePoint" />
          </mxGeometry>
        </mxCell>
        <mxCell id="meccaOd6r_jWTt41rKHq-44" style="edgeStyle=orthogonalEdgeStyle;rounded=0;orthogonalLoop=1;jettySize=auto;html=1;exitX=0.5;exitY=1;exitDx=0;exitDy=0;entryX=0.5;entryY=0;entryDx=0;entryDy=0;" parent="2b4e8129b02d487f-4" source="meccaOd6r_jWTt41rKHq-41" target="meccaOd6r_jWTt41rKHq-42" edge="1">
          <mxGeometry relative="1" as="geometry" />
        </mxCell>
        <mxCell id="meccaOd6r_jWTt41rKHq-41" value="&lt;div style=&quot;&quot;&gt;&lt;font face=&quot;Times New Roman&quot;&gt;Create dashboards with Looker&lt;/font&gt;&lt;br&gt;&lt;/div&gt;" style="rounded=1;whiteSpace=wrap;html=1;shadow=0;labelBackgroundColor=none;strokeWidth=1;fontFamily=Verdana;fontSize=8;align=center;" parent="2b4e8129b02d487f-4" vertex="1">
          <mxGeometry x="480" y="30" width="120" height="37" as="geometry" />
        </mxCell>
        <mxCell id="meccaOd6r_jWTt41rKHq-42" value="&lt;div style=&quot;&quot;&gt;&lt;font face=&quot;Times New Roman&quot;&gt;Deploy to Streamlit&lt;/font&gt;&lt;br&gt;&lt;/div&gt;" style="rounded=1;whiteSpace=wrap;html=1;shadow=0;labelBackgroundColor=none;strokeWidth=1;fontFamily=Verdana;fontSize=8;align=center;" parent="2b4e8129b02d487f-4" vertex="1">
          <mxGeometry x="480" y="86" width="120" height="37" as="geometry" />
        </mxCell>
        <mxCell id="meccaOd6r_jWTt41rKHq-55" style="edgeStyle=orthogonalEdgeStyle;rounded=0;orthogonalLoop=1;jettySize=auto;html=1;exitX=0.5;exitY=1;exitDx=0;exitDy=0;entryX=0.5;entryY=0;entryDx=0;entryDy=0;" parent="2b4e8129b02d487f-1" source="meccaOd6r_jWTt41rKHq-42" target="meccaOd6r_jWTt41rKHq-53" edge="1">
          <mxGeometry relative="1" as="geometry" />
        </mxCell>
        <mxCell id="meccaOd6r_jWTt41rKHq-45" value="Stage 4&lt;br&gt;&lt;font style=&quot;border-color: var(--border-color); font-size: 10px;&quot;&gt;Pipeline Automation&lt;br&gt;&lt;/font&gt;" style="swimlane;html=1;startSize=20;horizontal=0;" parent="2b4e8129b02d487f-1" vertex="1">
          <mxGeometry y="590" width="1010" height="150" as="geometry" />
        </mxCell>
        <mxCell id="meccaOd6r_jWTt41rKHq-52" style="edgeStyle=orthogonalEdgeStyle;rounded=0;orthogonalLoop=1;jettySize=auto;html=1;exitX=0.5;exitY=1;exitDx=0;exitDy=0;entryX=0.5;entryY=0;entryDx=0;entryDy=0;" parent="meccaOd6r_jWTt41rKHq-45" source="meccaOd6r_jWTt41rKHq-53" target="meccaOd6r_jWTt41rKHq-54" edge="1">
          <mxGeometry relative="1" as="geometry" />
        </mxCell>
        <mxCell id="meccaOd6r_jWTt41rKHq-53" value="&lt;div style=&quot;&quot;&gt;Set up Google Cloud Composer to orchestrate and automate your data pipeline&lt;br&gt;&lt;/div&gt;" style="rounded=1;whiteSpace=wrap;html=1;shadow=0;labelBackgroundColor=none;strokeWidth=1;fontFamily=Verdana;fontSize=8;align=center;" parent="meccaOd6r_jWTt41rKHq-45" vertex="1">
          <mxGeometry x="480" y="30" width="120" height="37" as="geometry" />
        </mxCell>
        <mxCell id="meccaOd6r_jWTt41rKHq-57" style="edgeStyle=orthogonalEdgeStyle;rounded=0;orthogonalLoop=1;jettySize=auto;html=1;exitX=0;exitY=0.5;exitDx=0;exitDy=0;entryX=1;entryY=0.5;entryDx=0;entryDy=0;" parent="meccaOd6r_jWTt41rKHq-45" source="meccaOd6r_jWTt41rKHq-54" target="meccaOd6r_jWTt41rKHq-56" edge="1">
          <mxGeometry relative="1" as="geometry" />
        </mxCell>
        <mxCell id="meccaOd6r_jWTt41rKHq-54" value="&lt;div style=&quot;&quot;&gt;Schedule tasks such as data ingestion, transformations, loading into BigQuery, model training, etc.&lt;br&gt;&lt;/div&gt;" style="rounded=1;whiteSpace=wrap;html=1;shadow=0;labelBackgroundColor=none;strokeWidth=1;fontFamily=Verdana;fontSize=8;align=center;" parent="meccaOd6r_jWTt41rKHq-45" vertex="1">
          <mxGeometry x="480" y="86" width="120" height="37" as="geometry" />
        </mxCell>
        <mxCell id="meccaOd6r_jWTt41rKHq-56" value="" style="ellipse;whiteSpace=wrap;html=1;rounded=0;shadow=0;labelBackgroundColor=none;strokeWidth=1;fontFamily=Verdana;fontSize=8;align=center;" parent="meccaOd6r_jWTt41rKHq-45" vertex="1">
          <mxGeometry x="414" y="89" width="30" height="30" as="geometry" />
        </mxCell>
        <mxCell id="meccaOd6r_jWTt41rKHq-40" style="edgeStyle=orthogonalEdgeStyle;rounded=0;orthogonalLoop=1;jettySize=auto;html=1;exitX=0;exitY=0.75;exitDx=0;exitDy=0;exitPerimeter=0;" parent="1" edge="1">
          <mxGeometry relative="1" as="geometry">
            <mxPoint x="969" y="500" as="targetPoint" />
            <mxPoint x="1008" y="500" as="sourcePoint" />
          </mxGeometry>
        </mxCell>
      </root>
    </mxGraphModel>
  </diagram>
  <diagram name="Copy of Page-1" id="B310GE8WHo3ex9GRjDIi">
    <mxGraphModel dx="2134" dy="446" grid="1" gridSize="10" guides="1" tooltips="1" connect="1" arrows="1" fold="1" page="1" pageScale="1" pageWidth="1100" pageHeight="850" background="none" math="0" shadow="0">
      <root>
        <mxCell id="_cmQj0ziHUXawoMl8fKL-0" />
        <mxCell id="_cmQj0ziHUXawoMl8fKL-1" parent="_cmQj0ziHUXawoMl8fKL-0" />
        <mxCell id="_cmQj0ziHUXawoMl8fKL-2" value="Pool" style="swimlane;html=1;childLayout=stackLayout;horizontal=1;startSize=20;horizontalStack=0;rounded=0;shadow=0;labelBackgroundColor=none;strokeWidth=1;fontFamily=Verdana;fontSize=8;align=center;" vertex="1" parent="_cmQj0ziHUXawoMl8fKL-1">
          <mxGeometry x="-20" width="1010" height="760" as="geometry" />
        </mxCell>
        <mxCell id="_cmQj0ziHUXawoMl8fKL-3" value="Stage 1&lt;br&gt;&lt;span style=&quot;font-size: 10px; background-color: rgb(251, 251, 251); text-align: left;&quot;&gt;Data Ingestion&lt;/span&gt;" style="swimlane;html=1;startSize=20;horizontal=0;" vertex="1" parent="_cmQj0ziHUXawoMl8fKL-2">
          <mxGeometry y="20" width="1010" height="170" as="geometry" />
        </mxCell>
        <mxCell id="_cmQj0ziHUXawoMl8fKL-4" style="edgeStyle=orthogonalEdgeStyle;rounded=0;html=1;labelBackgroundColor=none;startArrow=none;startFill=0;startSize=5;endArrow=classicThin;endFill=1;endSize=5;jettySize=auto;orthogonalLoop=1;strokeWidth=1;fontFamily=Verdana;fontSize=8" edge="1" parent="_cmQj0ziHUXawoMl8fKL-3" source="_cmQj0ziHUXawoMl8fKL-5" target="_cmQj0ziHUXawoMl8fKL-6">
          <mxGeometry relative="1" as="geometry" />
        </mxCell>
        <mxCell id="_cmQj0ziHUXawoMl8fKL-5" value="" style="ellipse;whiteSpace=wrap;html=1;rounded=0;shadow=0;labelBackgroundColor=none;strokeWidth=1;fontFamily=Verdana;fontSize=8;align=center;" vertex="1" parent="_cmQj0ziHUXawoMl8fKL-3">
          <mxGeometry x="35" y="60" width="30" height="30" as="geometry" />
        </mxCell>
        <mxCell id="2Y4eWPMmFIz3D6iTdAXj-2" value="" style="edgeStyle=orthogonalEdgeStyle;rounded=0;orthogonalLoop=1;jettySize=auto;html=1;" edge="1" parent="_cmQj0ziHUXawoMl8fKL-3" source="_cmQj0ziHUXawoMl8fKL-6" target="2Y4eWPMmFIz3D6iTdAXj-1">
          <mxGeometry relative="1" as="geometry" />
        </mxCell>
        <mxCell id="_cmQj0ziHUXawoMl8fKL-6" value="&lt;div style=&quot;&quot;&gt;&lt;span style=&quot;font-family: &amp;quot;Times New Roman&amp;quot;; background-color: initial;&quot;&gt;&lt;font style=&quot;font-size: 10px;&quot;&gt;Using the request to access and download data from the shared Drive.&lt;/font&gt;&lt;/span&gt;&lt;/div&gt;" style="rounded=1;whiteSpace=wrap;html=1;shadow=0;labelBackgroundColor=none;strokeWidth=1;fontFamily=Verdana;fontSize=8;align=center;" vertex="1" parent="_cmQj0ziHUXawoMl8fKL-3">
          <mxGeometry x="95" y="56.5" width="120" height="37" as="geometry" />
        </mxCell>
        <mxCell id="_cmQj0ziHUXawoMl8fKL-7" value="&lt;p&gt;&lt;span style=&quot;color: var(--tw-prose-code); font-family: &amp;quot;Söhne Mono&amp;quot;, Monaco, &amp;quot;Andale Mono&amp;quot;, &amp;quot;Ubuntu Mono&amp;quot;, monospace; font-size: 0.875em; font-weight: 600; background-color: initial;&quot;&gt;google-auth&lt;/span&gt;&lt;br&gt;&lt;/p&gt;&lt;p&gt;&lt;code style=&quot;border: 0px solid rgb(217, 217, 227); box-sizing: border-box; --tw-border-spacing-x: 0; --tw-border-spacing-y: 0; --tw-translate-x: 0; --tw-translate-y: 0; --tw-rotate: 0; --tw-skew-x: 0; --tw-skew-y: 0; --tw-scale-x: 1; --tw-scale-y: 1; --tw-pan-x: ; --tw-pan-y: ; --tw-pinch-zoom: ; --tw-scroll-snap-strictness: proximity; --tw-gradient-from-position: ; --tw-gradient-via-position: ; --tw-gradient-to-position: ; --tw-ordinal: ; --tw-slashed-zero: ; --tw-numeric-figure: ; --tw-numeric-spacing: ; --tw-numeric-fraction: ; --tw-ring-inset: ; --tw-ring-offset-width: 0px; --tw-ring-offset-color: #fff; --tw-ring-color: rgba(69,89,164,.5); --tw-ring-offset-shadow: 0 0 transparent; --tw-ring-shadow: 0 0 transparent; --tw-shadow: 0 0 transparent; --tw-shadow-colored: 0 0 transparent; --tw-blur: ; --tw-brightness: ; --tw-contrast: ; --tw-grayscale: ; --tw-hue-rotate: ; --tw-invert: ; --tw-saturate: ; --tw-sepia: ; --tw-drop-shadow: ; --tw-backdrop-blur: ; --tw-backdrop-brightness: ; --tw-backdrop-contrast: ; --tw-backdrop-grayscale: ; --tw-backdrop-hue-rotate: ; --tw-backdrop-invert: ; --tw-backdrop-opacity: ; --tw-backdrop-saturate: ; --tw-backdrop-sepia: ; font-size: 0.875em; color: var(--tw-prose-code); font-weight: 600; font-family: &amp;quot;Söhne Mono&amp;quot;, Monaco, &amp;quot;Andale Mono&amp;quot;, &amp;quot;Ubuntu Mono&amp;quot;, monospace !important;&quot;&gt;google-api-python-client&lt;/code&gt;&lt;br&gt;&lt;/p&gt;" style="text;html=1;strokeColor=none;fillColor=none;spacing=5;spacingTop=-20;whiteSpace=wrap;overflow=hidden;rounded=0;" vertex="1" parent="_cmQj0ziHUXawoMl8fKL-3">
          <mxGeometry x="190" y="6.5" width="190" height="50" as="geometry" />
        </mxCell>
        <mxCell id="2Y4eWPMmFIz3D6iTdAXj-0" value="&lt;div style=&quot;&quot;&gt;&lt;span style=&quot;font-family: &amp;quot;Times New Roman&amp;quot;; background-color: initial;&quot;&gt;&lt;font style=&quot;font-size: 10px;&quot;&gt;Using the Google Drive API to access and download data from the shared Drive.&lt;/font&gt;&lt;/span&gt;&lt;/div&gt;" style="rounded=1;whiteSpace=wrap;html=1;shadow=0;labelBackgroundColor=none;strokeWidth=1;fontFamily=Verdana;fontSize=8;align=center;" vertex="1" parent="_cmQj0ziHUXawoMl8fKL-3">
          <mxGeometry x="590" y="53" width="120" height="37" as="geometry" />
        </mxCell>
        <mxCell id="2Y4eWPMmFIz3D6iTdAXj-1" value="&lt;div style=&quot;&quot;&gt;&lt;font face=&quot;Times New Roman&quot;&gt;Create Cloud Storage&lt;/font&gt;&lt;br&gt;&lt;/div&gt;&lt;div style=&quot;&quot;&gt;&lt;font face=&quot;Times New Roman&quot;&gt;(bucket)&lt;br&gt;&lt;/font&gt;&lt;/div&gt;&lt;div style=&quot;&quot;&gt;&lt;font face=&quot;Times New Roman&quot;&gt;pipeline.py&lt;/font&gt;&lt;/div&gt;&lt;div style=&quot;&quot;&gt;&lt;font face=&quot;Times New Roman&quot;&gt;Dockerfile&lt;/font&gt;&lt;/div&gt;&lt;div style=&quot;&quot;&gt;&lt;font face=&quot;Times New Roman&quot;&gt;contenedorprueba (imagen)&lt;/font&gt;&lt;/div&gt;" style="rounded=1;whiteSpace=wrap;html=1;shadow=0;labelBackgroundColor=none;strokeWidth=1;fontFamily=Verdana;fontSize=8;align=center;" vertex="1" parent="_cmQj0ziHUXawoMl8fKL-3">
          <mxGeometry x="420" y="56" width="120" height="37" as="geometry" />
        </mxCell>
        <mxCell id="_cmQj0ziHUXawoMl8fKL-8" value="Stage 2&lt;br&gt;&lt;span style=&quot;background-color: rgb(251, 251, 251); text-align: left;&quot;&gt;&lt;font style=&quot;font-size: 10px;&quot;&gt;Layered Storage&lt;/font&gt;&lt;/span&gt;" style="swimlane;html=1;startSize=20;horizontal=0;" vertex="1" parent="_cmQj0ziHUXawoMl8fKL-2">
          <mxGeometry y="190" width="1010" height="250" as="geometry" />
        </mxCell>
        <mxCell id="_cmQj0ziHUXawoMl8fKL-9" value="&lt;font color=&quot;#000000&quot;&gt;Silver Layer &lt;/font&gt;" style="sketch=0;points=[[0,0,0],[0.25,0,0],[0.5,0,0],[0.75,0,0],[1,0,0],[1,0.25,0],[1,0.5,0],[1,0.75,0],[1,1,0],[0.75,1,0],[0.5,1,0],[0.25,1,0],[0,1,0],[0,0.75,0],[0,0.5,0],[0,0.25,0]];rounded=1;absoluteArcSize=1;arcSize=2;html=1;strokeColor=none;gradientColor=none;shadow=0;dashed=0;fontSize=12;fontColor=#9E9E9E;align=left;verticalAlign=top;spacing=10;spacingTop=-4;whiteSpace=wrap;fillColor=#D7D7D7;" vertex="1" parent="_cmQj0ziHUXawoMl8fKL-8">
          <mxGeometry x="380" y="5" width="270" height="240" as="geometry" />
        </mxCell>
        <mxCell id="_cmQj0ziHUXawoMl8fKL-10" value="&lt;font color=&quot;#000000&quot;&gt;Bronze Layer &lt;/font&gt;" style="sketch=0;points=[[0,0,0],[0.25,0,0],[0.5,0,0],[0.75,0,0],[1,0,0],[1,0.25,0],[1,0.5,0],[1,0.75,0],[1,1,0],[0.75,1,0],[0.5,1,0],[0.25,1,0],[0,1,0],[0,0.75,0],[0,0.5,0],[0,0.25,0]];rounded=1;absoluteArcSize=1;arcSize=2;html=1;strokeColor=none;gradientColor=none;shadow=0;dashed=0;fontSize=12;fontColor=#9E9E9E;align=left;verticalAlign=top;spacing=10;spacingTop=-4;whiteSpace=wrap;fillColor=#AD8A56;" vertex="1" parent="_cmQj0ziHUXawoMl8fKL-8">
          <mxGeometry x="30" y="5" width="280" height="240" as="geometry" />
        </mxCell>
        <mxCell id="_cmQj0ziHUXawoMl8fKL-11" value="Create a bucket in Google Cloud Storage to store raw raw data" style="rounded=1;whiteSpace=wrap;html=1;shadow=0;labelBackgroundColor=none;strokeWidth=1;fontFamily=Verdana;fontSize=8;align=center;fillColor=none;" vertex="1" parent="_cmQj0ziHUXawoMl8fKL-8">
          <mxGeometry x="90" y="60" width="130" height="37" as="geometry" />
        </mxCell>
        <mxCell id="_cmQj0ziHUXawoMl8fKL-12" value="Performs data cleaning, normalization, etc." style="rounded=1;whiteSpace=wrap;html=1;shadow=0;labelBackgroundColor=none;strokeWidth=1;fontFamily=Verdana;fontSize=8;align=center;fillColor=none;" vertex="1" parent="_cmQj0ziHUXawoMl8fKL-8">
          <mxGeometry x="453" y="60" width="140" height="37" as="geometry" />
        </mxCell>
        <mxCell id="_cmQj0ziHUXawoMl8fKL-13" value="&lt;font color=&quot;#000000&quot;&gt;Gold Layer &lt;/font&gt;" style="sketch=0;points=[[0,0,0],[0.25,0,0],[0.5,0,0],[0.75,0,0],[1,0,0],[1,0.25,0],[1,0.5,0],[1,0.75,0],[1,1,0],[0.75,1,0],[0.5,1,0],[0.25,1,0],[0,1,0],[0,0.75,0],[0,0.5,0],[0,0.25,0]];rounded=1;absoluteArcSize=1;arcSize=2;html=1;strokeColor=none;gradientColor=none;shadow=0;dashed=0;fontSize=12;fontColor=#9E9E9E;align=left;verticalAlign=top;spacing=10;spacingTop=-4;whiteSpace=wrap;fillColor=#C9B037;" vertex="1" parent="_cmQj0ziHUXawoMl8fKL-8">
          <mxGeometry x="719" y="4" width="270" height="240" as="geometry" />
        </mxCell>
        <mxCell id="_cmQj0ziHUXawoMl8fKL-14" value="It uses BigQuery to store the processed data. BigQuery is ideal for interactive analysis and supports SQL" style="rounded=1;whiteSpace=wrap;html=1;shadow=0;labelBackgroundColor=none;strokeWidth=1;fontFamily=Verdana;fontSize=8;align=center;fillColor=none;" vertex="1" parent="_cmQj0ziHUXawoMl8fKL-8">
          <mxGeometry x="780" y="60" width="130" height="37" as="geometry" />
        </mxCell>
        <mxCell id="_cmQj0ziHUXawoMl8fKL-15" value="Use Cloud Dataflow or Apache Beam to process and transform data from the bronze bucket and store it in a new silver bucket" style="rounded=1;whiteSpace=wrap;html=1;shadow=0;labelBackgroundColor=none;strokeWidth=1;fontFamily=Verdana;fontSize=8;align=center;fillColor=none;" vertex="1" parent="_cmQj0ziHUXawoMl8fKL-8">
          <mxGeometry x="453" y="130" width="140" height="37" as="geometry" />
        </mxCell>
        <mxCell id="_cmQj0ziHUXawoMl8fKL-16" value="" style="endArrow=classic;html=1;rounded=0;exitX=1;exitY=0.5;exitDx=0;exitDy=0;entryX=0;entryY=0.5;entryDx=0;entryDy=0;" edge="1" parent="_cmQj0ziHUXawoMl8fKL-8" source="_cmQj0ziHUXawoMl8fKL-11" target="_cmQj0ziHUXawoMl8fKL-12">
          <mxGeometry width="50" height="50" relative="1" as="geometry">
            <mxPoint x="310" y="77.91" as="sourcePoint" />
            <mxPoint x="380" y="78.16" as="targetPoint" />
          </mxGeometry>
        </mxCell>
        <mxCell id="_cmQj0ziHUXawoMl8fKL-17" value="" style="endArrow=classic;html=1;rounded=0;" edge="1" parent="_cmQj0ziHUXawoMl8fKL-8" source="_cmQj0ziHUXawoMl8fKL-12" target="_cmQj0ziHUXawoMl8fKL-15">
          <mxGeometry width="50" height="50" relative="1" as="geometry">
            <mxPoint x="520" y="120" as="sourcePoint" />
            <mxPoint x="570" y="70" as="targetPoint" />
          </mxGeometry>
        </mxCell>
        <mxCell id="_cmQj0ziHUXawoMl8fKL-18" value="" style="endArrow=classic;html=1;rounded=0;exitX=1;exitY=0.5;exitDx=0;exitDy=0;entryX=0;entryY=0.5;entryDx=0;entryDy=0;" edge="1" parent="_cmQj0ziHUXawoMl8fKL-8" source="_cmQj0ziHUXawoMl8fKL-12" target="_cmQj0ziHUXawoMl8fKL-14">
          <mxGeometry width="50" height="50" relative="1" as="geometry">
            <mxPoint x="650" y="77.91" as="sourcePoint" />
            <mxPoint x="720" y="78.16" as="targetPoint" />
          </mxGeometry>
        </mxCell>
        <mxCell id="_cmQj0ziHUXawoMl8fKL-19" value="Schedule data loading from the silver bucket to BigQuery." style="rounded=1;whiteSpace=wrap;html=1;shadow=0;labelBackgroundColor=none;strokeWidth=1;fontFamily=Verdana;fontSize=8;align=center;fillColor=none;" vertex="1" parent="_cmQj0ziHUXawoMl8fKL-8">
          <mxGeometry x="780" y="130" width="130" height="37" as="geometry" />
        </mxCell>
        <mxCell id="_cmQj0ziHUXawoMl8fKL-20" value="" style="endArrow=classic;html=1;rounded=0;" edge="1" parent="_cmQj0ziHUXawoMl8fKL-8">
          <mxGeometry width="50" height="50" relative="1" as="geometry">
            <mxPoint x="844.4100000000001" y="97" as="sourcePoint" />
            <mxPoint x="844.4100000000001" y="130" as="targetPoint" />
          </mxGeometry>
        </mxCell>
        <mxCell id="_cmQj0ziHUXawoMl8fKL-21" style="edgeStyle=orthogonalEdgeStyle;rounded=0;html=1;labelBackgroundColor=none;startArrow=none;startFill=0;startSize=5;endArrow=classicThin;endFill=1;endSize=5;jettySize=auto;orthogonalLoop=1;strokeWidth=1;fontFamily=Verdana;fontSize=8" edge="1" parent="_cmQj0ziHUXawoMl8fKL-2" source="_cmQj0ziHUXawoMl8fKL-6" target="_cmQj0ziHUXawoMl8fKL-11">
          <mxGeometry relative="1" as="geometry" />
        </mxCell>
        <mxCell id="_cmQj0ziHUXawoMl8fKL-22" style="edgeStyle=orthogonalEdgeStyle;rounded=0;orthogonalLoop=1;jettySize=auto;html=1;exitX=1;exitY=0.5;exitDx=0;exitDy=0;entryX=1;entryY=0.5;entryDx=0;entryDy=0;" edge="1" parent="_cmQj0ziHUXawoMl8fKL-2" source="_cmQj0ziHUXawoMl8fKL-14" target="_cmQj0ziHUXawoMl8fKL-28">
          <mxGeometry relative="1" as="geometry">
            <Array as="points">
              <mxPoint x="950" y="269" />
              <mxPoint x="950" y="559" />
            </Array>
          </mxGeometry>
        </mxCell>
        <mxCell id="_cmQj0ziHUXawoMl8fKL-23" value="Stage 3&lt;br&gt;&lt;font style=&quot;border-color: var(--border-color); font-size: 10px;&quot;&gt;Dashboard/ML&lt;br&gt;&lt;/font&gt;" style="swimlane;html=1;startSize=20;horizontal=0;" vertex="1" parent="_cmQj0ziHUXawoMl8fKL-2">
          <mxGeometry y="440" width="1010" height="150" as="geometry" />
        </mxCell>
        <mxCell id="_cmQj0ziHUXawoMl8fKL-24" style="edgeStyle=orthogonalEdgeStyle;rounded=0;orthogonalLoop=1;jettySize=auto;html=1;exitX=0;exitY=0.5;exitDx=0;exitDy=0;exitPerimeter=0;" edge="1" parent="_cmQj0ziHUXawoMl8fKL-23">
          <mxGeometry relative="1" as="geometry">
            <mxPoint x="600" y="50" as="targetPoint" />
            <mxPoint x="719" y="50" as="sourcePoint" />
          </mxGeometry>
        </mxCell>
        <mxCell id="_cmQj0ziHUXawoMl8fKL-25" value="" style="sketch=0;points=[[0,0,0],[0.25,0,0],[0.5,0,0],[0.75,0,0],[1,0,0],[1,0.25,0],[1,0.5,0],[1,0.75,0],[1,1,0],[0.75,1,0],[0.5,1,0],[0.25,1,0],[0,1,0],[0,0.75,0],[0,0.5,0],[0,0.25,0]];rounded=1;absoluteArcSize=1;arcSize=2;html=1;strokeColor=none;gradientColor=none;shadow=0;dashed=0;fontSize=12;fontColor=#9E9E9E;align=left;verticalAlign=top;spacing=10;spacingTop=-4;whiteSpace=wrap;fillColor=#C9B037;" vertex="1" parent="_cmQj0ziHUXawoMl8fKL-23">
          <mxGeometry x="719" y="5" width="270" height="140" as="geometry" />
        </mxCell>
        <mxCell id="_cmQj0ziHUXawoMl8fKL-26" value="Setting up BigQuery for ML" style="rounded=1;whiteSpace=wrap;html=1;shadow=0;labelBackgroundColor=none;strokeWidth=1;fontFamily=Verdana;fontSize=8;align=center;fillColor=none;" vertex="1" parent="_cmQj0ziHUXawoMl8fKL-23">
          <mxGeometry x="780" y="10" width="130" height="37" as="geometry" />
        </mxCell>
        <mxCell id="_cmQj0ziHUXawoMl8fKL-27" value="Integration with Dashboards" style="rounded=1;whiteSpace=wrap;html=1;shadow=0;labelBackgroundColor=none;strokeWidth=1;fontFamily=Verdana;fontSize=8;align=center;fillColor=none;" vertex="1" parent="_cmQj0ziHUXawoMl8fKL-23">
          <mxGeometry x="780" y="55" width="130" height="37" as="geometry" />
        </mxCell>
        <mxCell id="_cmQj0ziHUXawoMl8fKL-28" value="Training ML Models" style="rounded=1;whiteSpace=wrap;html=1;shadow=0;labelBackgroundColor=none;strokeWidth=1;fontFamily=Verdana;fontSize=8;align=center;fillColor=none;" vertex="1" parent="_cmQj0ziHUXawoMl8fKL-23">
          <mxGeometry x="780" y="100" width="130" height="37" as="geometry" />
        </mxCell>
        <mxCell id="_cmQj0ziHUXawoMl8fKL-29" style="edgeStyle=orthogonalEdgeStyle;rounded=0;orthogonalLoop=1;jettySize=auto;html=1;exitX=0;exitY=0.75;exitDx=0;exitDy=0;exitPerimeter=0;" edge="1" parent="_cmQj0ziHUXawoMl8fKL-23">
          <mxGeometry relative="1" as="geometry">
            <mxPoint x="910" y="28" as="targetPoint" />
            <mxPoint x="949" y="28" as="sourcePoint" />
          </mxGeometry>
        </mxCell>
        <mxCell id="_cmQj0ziHUXawoMl8fKL-30" style="edgeStyle=orthogonalEdgeStyle;rounded=0;orthogonalLoop=1;jettySize=auto;html=1;exitX=0.5;exitY=1;exitDx=0;exitDy=0;entryX=0.5;entryY=0;entryDx=0;entryDy=0;" edge="1" parent="_cmQj0ziHUXawoMl8fKL-23" source="_cmQj0ziHUXawoMl8fKL-31" target="_cmQj0ziHUXawoMl8fKL-32">
          <mxGeometry relative="1" as="geometry" />
        </mxCell>
        <mxCell id="_cmQj0ziHUXawoMl8fKL-31" value="&lt;div style=&quot;&quot;&gt;&lt;font face=&quot;Times New Roman&quot;&gt;Create dashboards with Looker&lt;/font&gt;&lt;br&gt;&lt;/div&gt;" style="rounded=1;whiteSpace=wrap;html=1;shadow=0;labelBackgroundColor=none;strokeWidth=1;fontFamily=Verdana;fontSize=8;align=center;" vertex="1" parent="_cmQj0ziHUXawoMl8fKL-23">
          <mxGeometry x="480" y="30" width="120" height="37" as="geometry" />
        </mxCell>
        <mxCell id="_cmQj0ziHUXawoMl8fKL-32" value="&lt;div style=&quot;&quot;&gt;&lt;font face=&quot;Times New Roman&quot;&gt;Deploy to Streamlit&lt;/font&gt;&lt;br&gt;&lt;/div&gt;" style="rounded=1;whiteSpace=wrap;html=1;shadow=0;labelBackgroundColor=none;strokeWidth=1;fontFamily=Verdana;fontSize=8;align=center;" vertex="1" parent="_cmQj0ziHUXawoMl8fKL-23">
          <mxGeometry x="480" y="86" width="120" height="37" as="geometry" />
        </mxCell>
        <mxCell id="_cmQj0ziHUXawoMl8fKL-33" style="edgeStyle=orthogonalEdgeStyle;rounded=0;orthogonalLoop=1;jettySize=auto;html=1;exitX=0.5;exitY=1;exitDx=0;exitDy=0;entryX=0.5;entryY=0;entryDx=0;entryDy=0;" edge="1" parent="_cmQj0ziHUXawoMl8fKL-2" source="_cmQj0ziHUXawoMl8fKL-32" target="_cmQj0ziHUXawoMl8fKL-36">
          <mxGeometry relative="1" as="geometry" />
        </mxCell>
        <mxCell id="_cmQj0ziHUXawoMl8fKL-34" value="Stage 4&lt;br&gt;&lt;font style=&quot;border-color: var(--border-color); font-size: 10px;&quot;&gt;Pipeline Automation&lt;br&gt;&lt;/font&gt;" style="swimlane;html=1;startSize=20;horizontal=0;" vertex="1" parent="_cmQj0ziHUXawoMl8fKL-2">
          <mxGeometry y="590" width="1010" height="150" as="geometry" />
        </mxCell>
        <mxCell id="_cmQj0ziHUXawoMl8fKL-35" style="edgeStyle=orthogonalEdgeStyle;rounded=0;orthogonalLoop=1;jettySize=auto;html=1;exitX=0.5;exitY=1;exitDx=0;exitDy=0;entryX=0.5;entryY=0;entryDx=0;entryDy=0;" edge="1" parent="_cmQj0ziHUXawoMl8fKL-34" source="_cmQj0ziHUXawoMl8fKL-36" target="_cmQj0ziHUXawoMl8fKL-38">
          <mxGeometry relative="1" as="geometry" />
        </mxCell>
        <mxCell id="_cmQj0ziHUXawoMl8fKL-36" value="&lt;div style=&quot;&quot;&gt;Set up Google Cloud Composer to orchestrate and automate your data pipeline&lt;br&gt;&lt;/div&gt;" style="rounded=1;whiteSpace=wrap;html=1;shadow=0;labelBackgroundColor=none;strokeWidth=1;fontFamily=Verdana;fontSize=8;align=center;" vertex="1" parent="_cmQj0ziHUXawoMl8fKL-34">
          <mxGeometry x="480" y="30" width="120" height="37" as="geometry" />
        </mxCell>
        <mxCell id="_cmQj0ziHUXawoMl8fKL-37" style="edgeStyle=orthogonalEdgeStyle;rounded=0;orthogonalLoop=1;jettySize=auto;html=1;exitX=0;exitY=0.5;exitDx=0;exitDy=0;entryX=1;entryY=0.5;entryDx=0;entryDy=0;" edge="1" parent="_cmQj0ziHUXawoMl8fKL-34" source="_cmQj0ziHUXawoMl8fKL-38" target="_cmQj0ziHUXawoMl8fKL-39">
          <mxGeometry relative="1" as="geometry" />
        </mxCell>
        <mxCell id="_cmQj0ziHUXawoMl8fKL-38" value="&lt;div style=&quot;&quot;&gt;Schedule tasks such as data ingestion, transformations, loading into BigQuery, model training, etc.&lt;br&gt;&lt;/div&gt;" style="rounded=1;whiteSpace=wrap;html=1;shadow=0;labelBackgroundColor=none;strokeWidth=1;fontFamily=Verdana;fontSize=8;align=center;" vertex="1" parent="_cmQj0ziHUXawoMl8fKL-34">
          <mxGeometry x="480" y="86" width="120" height="37" as="geometry" />
        </mxCell>
        <mxCell id="_cmQj0ziHUXawoMl8fKL-39" value="" style="ellipse;whiteSpace=wrap;html=1;rounded=0;shadow=0;labelBackgroundColor=none;strokeWidth=1;fontFamily=Verdana;fontSize=8;align=center;" vertex="1" parent="_cmQj0ziHUXawoMl8fKL-34">
          <mxGeometry x="414" y="89" width="30" height="30" as="geometry" />
        </mxCell>
        <mxCell id="_cmQj0ziHUXawoMl8fKL-40" style="edgeStyle=orthogonalEdgeStyle;rounded=0;orthogonalLoop=1;jettySize=auto;html=1;exitX=0;exitY=0.75;exitDx=0;exitDy=0;exitPerimeter=0;" edge="1" parent="_cmQj0ziHUXawoMl8fKL-1">
          <mxGeometry relative="1" as="geometry">
            <mxPoint x="969" y="500" as="targetPoint" />
            <mxPoint x="1008" y="500" as="sourcePoint" />
          </mxGeometry>
        </mxCell>
      </root>
    </mxGraphModel>
  </diagram>
</mxfile>
